<mxfile host="app.diagrams.net" modified="2022-07-29T21:55:48.854Z" agent="5.0 (Windows NT 10.0; Win64; x64) AppleWebKit/537.36 (KHTML, like Gecko) Chrome/103.0.0.0 Safari/537.36" etag="sl3FJZY82RduY4fh0OzD" version="20.2.2" type="github">
  <diagram name="Page-1" id="c4acf3e9-155e-7222-9cf6-157b1a14988f">
    <mxGraphModel dx="1123" dy="3266" grid="1" gridSize="10" guides="1" tooltips="1" connect="1" arrows="1" fold="1" page="1" pageScale="1" pageWidth="850" pageHeight="1100" background="none" math="0" shadow="0">
      <root>
        <mxCell id="0" />
        <mxCell id="1" parent="0" />
        <mxCell id="17acba5748e5396b-1" value="frame" style="shape=umlFrame;whiteSpace=wrap;html=1;rounded=0;shadow=0;comic=0;labelBackgroundColor=none;strokeWidth=1;fontFamily=Verdana;fontSize=10;align=center;" parent="1" vertex="1">
          <mxGeometry x="20" y="20" width="820" height="1060" as="geometry" />
        </mxCell>
        <UserObject label="Part 1" lucidchartObjectId="xU7CzrgvaBuM" id="QppL3apP4pxPCaE8zfrQ-1">
          <mxCell style="html=1;overflow=block;blockSpacing=1;whiteSpace=wrap;fontSize=16.7;fontColor=#3a414a;spacing=3.8;strokeOpacity=0;fillOpacity=0;rounded=1;absoluteArcSize=1;arcSize=9;fillColor=#ffffff;strokeWidth=0.8;" vertex="1" parent="1">
            <mxGeometry x="205" y="-1960" width="180" height="45" as="geometry" />
          </mxCell>
        </UserObject>
        <UserObject label="Part 2" lucidchartObjectId="6U7Cz1FE.9Dq" id="QppL3apP4pxPCaE8zfrQ-2">
          <mxCell style="html=1;overflow=block;blockSpacing=1;whiteSpace=wrap;fontSize=16.7;fontColor=#3a414a;spacing=3.8;strokeOpacity=0;fillOpacity=0;rounded=1;absoluteArcSize=1;arcSize=9;fillColor=#ffffff;strokeWidth=0.8;" vertex="1" parent="1">
            <mxGeometry x="640" y="-1960" width="180" height="45" as="geometry" />
          </mxCell>
        </UserObject>
        <mxCell id="QppL3apP4pxPCaE8zfrQ-3" value="Book" style="html=1;overflow=block;blockSpacing=1;swimlane;childLayout=stackLayout;horizontal=1;horizontalStack=0;resizeParent=1;resizeParentMax=0;resizeLast=0;collapsible=0;fontStyle=0;marginBottom=0;swimlaneFillColor=#ffffff;startSize=25;whiteSpace=wrap;fontSize=16.7;fontColor=#3a414a;align=left;spacing=0;strokeColor=#3a414a;strokeOpacity=100;rounded=1;absoluteArcSize=1;arcSize=9;strokeWidth=0.8;" vertex="1" parent="1">
          <mxGeometry x="145" y="-1900" width="300" height="227.25" as="geometry" />
        </mxCell>
        <mxCell id="QppL3apP4pxPCaE8zfrQ-4" value="# title:String&#xa;# author:String&#xa;" style="part=1;html=1;resizeHeight=0;strokeColor=none;fillColor=none;align=left;verticalAlign=middle;spacingLeft=4;spacingRight=4;overflow=hidden;rotatable=0;points=[[0,0.5],[1,0.5]];portConstraint=eastwest;swimlaneFillColor=#ffffff;strokeOpacity=100;whiteSpace=wrap;fontSize=16.7;fontColor=#3a414a;" vertex="1" parent="QppL3apP4pxPCaE8zfrQ-3">
          <mxGeometry y="25" width="300" height="92" as="geometry" />
        </mxCell>
        <mxCell id="QppL3apP4pxPCaE8zfrQ-5" value="" style="line;strokeWidth=1;fillColor=none;align=left;verticalAlign=middle;spacingTop=-1;spacingLeft=3;spacingRight=3;rotatable=0;labelPosition=right;points=[];portConstraint=eastwest;" vertex="1" parent="QppL3apP4pxPCaE8zfrQ-3">
          <mxGeometry y="117" width="300" height="8" as="geometry" />
        </mxCell>
        <mxCell id="QppL3apP4pxPCaE8zfrQ-6" value="+ convertBookToString():String&#xa;+ setBookInfo(String detailString):void&#xa;" style="part=1;html=1;resizeHeight=0;strokeColor=none;fillColor=none;align=left;verticalAlign=middle;spacingLeft=4;spacingRight=4;overflow=hidden;rotatable=0;points=[[0,0.5],[1,0.5]];portConstraint=eastwest;swimlaneFillColor=#ffffff;strokeOpacity=100;whiteSpace=wrap;fontSize=16.7;fontColor=#3a414a;" vertex="1" parent="QppL3apP4pxPCaE8zfrQ-3">
          <mxGeometry y="125" width="300" height="102.25" as="geometry" />
        </mxCell>
        <mxCell id="QppL3apP4pxPCaE8zfrQ-7" value="LibraryBook" style="html=1;overflow=block;blockSpacing=1;swimlane;childLayout=stackLayout;horizontal=1;horizontalStack=0;resizeParent=1;resizeParentMax=0;resizeLast=0;collapsible=0;fontStyle=0;marginBottom=0;swimlaneFillColor=#ffffff;startSize=25;whiteSpace=wrap;fontSize=16.7;fontColor=#3a414a;align=left;spacing=0;strokeColor=#3a414a;strokeOpacity=100;rounded=1;absoluteArcSize=1;arcSize=9;strokeWidth=0.8;" vertex="1" parent="1">
          <mxGeometry x="70" y="-1540" width="270" height="187.25" as="geometry" />
        </mxCell>
        <mxCell id="QppL3apP4pxPCaE8zfrQ-8" value="# isbn:String&#xa;# subjectList:String&#xa;" style="part=1;html=1;resizeHeight=0;strokeColor=none;fillColor=none;align=left;verticalAlign=middle;spacingLeft=4;spacingRight=4;overflow=hidden;rotatable=0;points=[[0,0.5],[1,0.5]];portConstraint=eastwest;swimlaneFillColor=#ffffff;strokeOpacity=100;whiteSpace=wrap;fontSize=16.7;fontColor=#3a414a;" vertex="1" parent="QppL3apP4pxPCaE8zfrQ-7">
          <mxGeometry y="25" width="270" height="72" as="geometry" />
        </mxCell>
        <mxCell id="QppL3apP4pxPCaE8zfrQ-9" value="" style="line;strokeWidth=1;fillColor=none;align=left;verticalAlign=middle;spacingTop=-1;spacingLeft=3;spacingRight=3;rotatable=0;labelPosition=right;points=[];portConstraint=eastwest;" vertex="1" parent="QppL3apP4pxPCaE8zfrQ-7">
          <mxGeometry y="97" width="270" height="8" as="geometry" />
        </mxCell>
        <mxCell id="QppL3apP4pxPCaE8zfrQ-10" value="" style="part=1;html=1;resizeHeight=0;strokeColor=none;fillColor=none;align=left;verticalAlign=middle;spacingLeft=4;spacingRight=4;overflow=hidden;rotatable=0;points=[[0,0.5],[1,0.5]];portConstraint=eastwest;swimlaneFillColor=#ffffff;strokeOpacity=100;whiteSpace=wrap;fontSize=13;" vertex="1" parent="QppL3apP4pxPCaE8zfrQ-7">
          <mxGeometry y="105" width="270" height="82.25" as="geometry" />
        </mxCell>
        <UserObject label="" lucidchartObjectId="C07CwJL21Ke9" id="QppL3apP4pxPCaE8zfrQ-11">
          <mxCell style="html=1;jettySize=18;whiteSpace=wrap;fontSize=13;strokeColor=#3a414a;strokeOpacity=100;strokeWidth=0.8;rounded=1;arcSize=12;edgeStyle=orthogonalEdgeStyle;startArrow=none;endArrow=block;endFill=0;endSize=12;exitX=0.5;exitY=-0.002;exitPerimeter=0;entryX=0.5;entryY=1.002;entryPerimeter=0;" edge="1" parent="1" source="QppL3apP4pxPCaE8zfrQ-7" target="QppL3apP4pxPCaE8zfrQ-3">
            <mxGeometry width="100" height="100" relative="1" as="geometry">
              <Array as="points" />
            </mxGeometry>
          </mxCell>
        </UserObject>
        <mxCell id="QppL3apP4pxPCaE8zfrQ-12" value="&amp;lt;&amp;lt;interface&amp;gt;&amp;gt; HTTPRequestClient " style="html=1;overflow=block;blockSpacing=1;swimlane;childLayout=stackLayout;horizontal=1;horizontalStack=0;resizeParent=1;resizeParentMax=0;resizeLast=0;collapsible=0;fontStyle=0;marginBottom=0;swimlaneFillColor=#ffffff;startSize=25;whiteSpace=wrap;fontSize=16.7;fontColor=#3a414a;align=left;spacing=0;strokeColor=#3a414a;strokeOpacity=100;rounded=1;absoluteArcSize=1;arcSize=9;strokeWidth=0.8;" vertex="1" parent="1">
          <mxGeometry x="610" y="-1900" width="315" height="227.25" as="geometry" />
        </mxCell>
        <mxCell id="QppL3apP4pxPCaE8zfrQ-13" value="+ DEBUG:boolean = false&#xa;+ GET_URL:String = &quot;search.json&quot;&#xa;" style="part=1;html=1;resizeHeight=0;strokeColor=none;fillColor=none;align=left;verticalAlign=middle;spacingLeft=4;spacingRight=4;overflow=hidden;rotatable=0;points=[[0,0.5],[1,0.5]];portConstraint=eastwest;swimlaneFillColor=#ffffff;strokeOpacity=100;whiteSpace=wrap;fontSize=16.7;fontColor=#3a414a;" vertex="1" parent="QppL3apP4pxPCaE8zfrQ-12">
          <mxGeometry y="25" width="315" height="92" as="geometry" />
        </mxCell>
        <mxCell id="QppL3apP4pxPCaE8zfrQ-14" value="" style="line;strokeWidth=1;fillColor=none;align=left;verticalAlign=middle;spacingTop=-1;spacingLeft=3;spacingRight=3;rotatable=0;labelPosition=right;points=[];portConstraint=eastwest;" vertex="1" parent="QppL3apP4pxPCaE8zfrQ-12">
          <mxGeometry y="117" width="315" height="8" as="geometry" />
        </mxCell>
        <mxCell id="QppL3apP4pxPCaE8zfrQ-15" value="+ sendGET(String, String):void&#xa;+ checkError(String):boolean&#xa;+ getResponse():String" style="part=1;html=1;resizeHeight=0;strokeColor=none;fillColor=none;align=left;verticalAlign=middle;spacingLeft=4;spacingRight=4;overflow=hidden;rotatable=0;points=[[0,0.5],[1,0.5]];portConstraint=eastwest;swimlaneFillColor=#ffffff;strokeOpacity=100;whiteSpace=wrap;fontSize=16.7;fontColor=#3a414a;" vertex="1" parent="QppL3apP4pxPCaE8zfrQ-12">
          <mxGeometry y="125" width="315" height="102.25" as="geometry" />
        </mxCell>
        <mxCell id="QppL3apP4pxPCaE8zfrQ-16" value="WebRequestDTO" style="html=1;overflow=block;blockSpacing=1;swimlane;childLayout=stackLayout;horizontal=1;horizontalStack=0;resizeParent=1;resizeParentMax=0;resizeLast=0;collapsible=0;fontStyle=0;marginBottom=0;swimlaneFillColor=#ffffff;startSize=25;whiteSpace=wrap;fontSize=16.7;fontColor=#3a414a;align=left;spacing=0;strokeColor=#3a414a;strokeOpacity=100;rounded=1;absoluteArcSize=1;arcSize=9;strokeWidth=0.8;" vertex="1" parent="1">
          <mxGeometry x="535" y="-1555" width="270" height="216.25" as="geometry" />
        </mxCell>
        <mxCell id="QppL3apP4pxPCaE8zfrQ-17" value="# numFound:int&#xa;# documents:Array[]&#xa;" style="part=1;html=1;resizeHeight=0;strokeColor=none;fillColor=none;align=left;verticalAlign=middle;spacingLeft=4;spacingRight=4;overflow=hidden;rotatable=0;points=[[0,0.5],[1,0.5]];portConstraint=eastwest;swimlaneFillColor=#ffffff;strokeOpacity=100;whiteSpace=wrap;fontSize=16.7;fontColor=#3a414a;" vertex="1" parent="QppL3apP4pxPCaE8zfrQ-16">
          <mxGeometry y="25" width="270" height="79" as="geometry" />
        </mxCell>
        <mxCell id="QppL3apP4pxPCaE8zfrQ-18" value="" style="line;strokeWidth=1;fillColor=none;align=left;verticalAlign=middle;spacingTop=-1;spacingLeft=3;spacingRight=3;rotatable=0;labelPosition=right;points=[];portConstraint=eastwest;" vertex="1" parent="QppL3apP4pxPCaE8zfrQ-16">
          <mxGeometry y="104" width="270" height="8" as="geometry" />
        </mxCell>
        <mxCell id="QppL3apP4pxPCaE8zfrQ-19" value="" style="part=1;html=1;resizeHeight=0;strokeColor=none;fillColor=none;align=left;verticalAlign=middle;spacingLeft=4;spacingRight=4;overflow=hidden;rotatable=0;points=[[0,0.5],[1,0.5]];portConstraint=eastwest;swimlaneFillColor=#ffffff;strokeOpacity=100;whiteSpace=wrap;fontSize=13;" vertex="1" parent="QppL3apP4pxPCaE8zfrQ-16">
          <mxGeometry y="112" width="270" height="104.25" as="geometry" />
        </mxCell>
        <UserObject label="" lucidchartObjectId="0I_CfiOvpxNb" id="QppL3apP4pxPCaE8zfrQ-20">
          <mxCell style="html=1;jettySize=18;whiteSpace=wrap;fontSize=13;strokeColor=#3a414a;strokeOpacity=100;dashed=1;fixDash=1;dashPattern=16 6;strokeWidth=0.8;rounded=1;arcSize=12;edgeStyle=orthogonalEdgeStyle;startArrow=none;endArrow=open;exitX=0.5;exitY=-0.002;exitPerimeter=0;entryX=0.5;entryY=1.002;entryPerimeter=0;" edge="1" parent="1" source="QppL3apP4pxPCaE8zfrQ-16" target="QppL3apP4pxPCaE8zfrQ-12">
            <mxGeometry width="100" height="100" relative="1" as="geometry">
              <Array as="points" />
            </mxGeometry>
          </mxCell>
        </UserObject>
        <UserObject label="" lucidchartObjectId="3J_C~.xnrt3a" id="QppL3apP4pxPCaE8zfrQ-21">
          <mxCell style="html=1;overflow=block;blockSpacing=1;whiteSpace=wrap;shape=image;fontSize=13;spacing=0;strokeColor=none;strokeOpacity=100;strokeWidth=0;image=https://images.lucid.app/images/462a75c5-ce3d-442a-9572-1a2fd26a31dd/content;imageAspect=0;" vertex="1" parent="1">
            <mxGeometry x="295" y="-1330" width="286" height="162" as="geometry" />
          </mxCell>
        </UserObject>
        <UserObject label="implements" lucidchartObjectId="He.CwF2cVW0X" id="QppL3apP4pxPCaE8zfrQ-22">
          <mxCell style="html=1;overflow=block;blockSpacing=1;whiteSpace=wrap;fontSize=16.7;fontColor=#3a414a;spacing=3.8;strokeOpacity=0;fillOpacity=0;rounded=1;absoluteArcSize=1;arcSize=9;fillColor=#ffffff;strokeWidth=0.8;" vertex="1" parent="1">
            <mxGeometry x="730" y="-1676" width="180" height="45" as="geometry" />
          </mxCell>
        </UserObject>
        <UserObject label="extends" lucidchartObjectId="cl.CAbDZh1-A" id="QppL3apP4pxPCaE8zfrQ-23">
          <mxCell style="html=1;overflow=block;blockSpacing=1;whiteSpace=wrap;fontSize=16.7;fontColor=#3a414a;spacing=3.8;strokeOpacity=0;fillOpacity=0;rounded=1;absoluteArcSize=1;arcSize=9;fillColor=#ffffff;strokeWidth=0.8;" vertex="1" parent="1">
            <mxGeometry x="250" y="-1676" width="180" height="45" as="geometry" />
          </mxCell>
        </UserObject>
      </root>
    </mxGraphModel>
  </diagram>
</mxfile>
